<svg width="100" height="100" viewBox="0 0 100 100" fill="none" xmlns="http://www.w3.org/2000/svg">
<rect width="100" height="100" rx="50" fill="#041021"/>
<path d="M24.2642 51.3412C24.2642 50.4753 24.9661 49.7734 25.8319 49.7734H30.0126C30.8784 49.7734 31.5803 50.4753 31.5803 51.3412V74.8574C31.5803 75.7232 30.8784 76.4251 30.0126 76.4251H25.8319C24.9661 76.4251 24.2642 75.7232 24.2642 74.8574V51.3412Z" fill="white"/>
<path d="M35.2383 24.6888C35.2383 23.823 35.9402 23.1211 36.806 23.1211H40.9867C41.8525 23.1211 42.5544 23.823 42.5544 24.6888V74.8567C42.5544 75.7225 41.8525 76.4244 40.9867 76.4244H36.806C35.9402 76.4244 35.2383 75.7225 35.2383 74.8567V24.6888Z" fill="white"/>
<path d="M46.7354 24.6888C46.7354 23.823 47.4373 23.1211 48.3031 23.1211H52.4838C53.3496 23.1211 54.0515 23.823 54.0515 24.6888V74.8567C54.0515 75.7225 53.3496 76.4244 52.4838 76.4244H48.3031C47.4373 76.4244 46.7354 75.7225 46.7354 74.8567V24.6888Z" fill="white"/>
<path d="M57.7095 24.6888C57.7095 23.823 58.4114 23.1211 59.2772 23.1211H63.4579C64.3237 23.1211 65.0256 23.823 65.0256 24.6888V74.8567C65.0256 75.7225 64.3237 76.4244 63.4579 76.4244H59.2772C58.4114 76.4244 57.7095 75.7225 57.7095 74.8567V24.6888Z" fill="white"/>
<path d="M68.6841 24.6888C68.6841 23.823 69.386 23.1211 70.2518 23.1211H74.4325C75.2983 23.1211 76.0002 23.823 76.0002 24.6888V42.4566C76.0002 43.3225 75.2983 44.0244 74.4325 44.0244H70.2518C69.386 44.0244 68.6841 43.3225 68.6841 42.4566V24.6888Z" fill="white"/>
</svg>
